<?xml version="1.0" encoding="UTF-8" standalone="no"?><svg xmlns="http://www.w3.org/2000/svg" xmlns:xlink="http://www.w3.org/1999/xlink" contentStyleType="text/css" height="430px" preserveAspectRatio="none" style="width:972px;height:430px;background:#FFFFFF;" version="1.1" viewBox="0 0 972 430" width="972px" zoomAndPan="magnify"><defs/><g><!--MD5=[00c02f68efac053078e16a3ec5b18ef9]
class LocalSearch--><g id="elem_LocalSearch"><rect codeLine="2" fill="#F1F1F1" height="67.0791" id="LocalSearch" rx="2.5" ry="2.5" style="stroke:#181818;stroke-width:0.5;" width="325" x="536.5" y="7"/><ellipse cx="655.25" cy="23" fill="#B4A7E5" rx="11" ry="11" style="stroke:#181818;stroke-width:1.0;"/><path d="M655.9375,29.5 L654.25,29.5 L654.25,16.8125 L655.9375,16.8125 L655.9375,29.5 Z " fill="#000000"/><text fill="#000000" font-family="sans-serif" font-size="14" font-style="italic" lengthAdjust="spacing" textLength="79" x="675.75" y="29.1558">LocalSearch</text><line style="stroke:#181818;stroke-width:0.5;" x1="537.5" x2="860.5" y1="39" y2="39"/><line style="stroke:#181818;stroke-width:0.5;" x1="537.5" x2="860.5" y1="47" y2="47"/><text fill="#000000" font-family="sans-serif" font-size="14" lengthAdjust="spacing" textLength="313" x="542.5" y="66.6953">List&lt;Local&gt; search(String keyword, Integer count)</text></g><!--MD5=[6008c7f0096617f4a3a48c960c8ef816]
class KakaoLocalSearch--><g id="elem_KakaoLocalSearch"><rect codeLine="6" fill="#F1F1F1" height="124.3164" id="KakaoLocalSearch" rx="2.5" ry="2.5" style="stroke:#181818;stroke-width:0.5;" width="440" x="7" y="134"/><ellipse cx="163.25" cy="150" fill="#ADD1B2" rx="11" ry="11" style="stroke:#181818;stroke-width:1.0;"/><path d="M166.6875,155.0781 Q165.1094,156.25 163.0156,156.25 Q160.3125,156.25 158.6563,154.5313 Q157,152.8125 157,150.125 Q157,147.2813 158.8125,145.4219 Q160.6406,143.5625 163.5,143.5625 Q165.3438,143.5625 166.6875,144.75 L166.6875,146.5781 Q164.875,145.25 163.3281,145.25 Q161.2031,145.25 159.9375,146.5938 Q158.6875,147.9375 158.6875,150.0469 Q158.6875,152.0781 159.8594,153.3281 Q161.0313,154.5625 163.0156,154.5625 Q164.8281,154.5625 166.6875,153.2344 L166.6875,155.0781 Z " fill="#000000"/><text fill="#000000" font-family="sans-serif" font-size="14" lengthAdjust="spacing" textLength="119" x="183.75" y="156.1558">KakaoLocalSearch</text><line style="stroke:#181818;stroke-width:0.5;" x1="8" x2="446" y1="166" y2="166"/><rect fill="none" height="6" style="stroke:#C82930;stroke-width:1.0;" width="6" x="15" y="174"/><text fill="#000000" font-family="sans-serif" font-size="14" lengthAdjust="spacing" textLength="40" x="27" y="185.6953">server</text><rect fill="none" height="6" style="stroke:#C82930;stroke-width:1.0;" width="6" x="15" y="193.0791"/><text fill="#000000" font-family="sans-serif" font-size="14" lengthAdjust="spacing" textLength="83" x="27" y="204.7744">restTemplate</text><line style="stroke:#181818;stroke-width:1.0;" x1="8" x2="446" y1="212.1582" y2="212.1582"/><ellipse cx="18" cy="223.1582" fill="#84BE84" rx="3" ry="3" style="stroke:#038048;stroke-width:1.0;"/><text fill="#000000" font-family="sans-serif" font-size="14" lengthAdjust="spacing" textLength="414" x="27" y="231.8535">KakaoLocalSearchResult search(KakaoLocalSearchQuery query)</text><ellipse cx="18" cy="242.2373" fill="#84BE84" rx="3" ry="3" style="stroke:#038048;stroke-width:1.0;"/><text fill="#000000" font-family="sans-serif" font-size="14" lengthAdjust="spacing" textLength="313" x="27" y="250.9326">List&lt;Local&gt; search(String keyword, Integer count)</text></g><!--MD5=[facebab268bc4d46da8de6f1d49895b1]
class NaverLocalSearch--><g id="elem_NaverLocalSearch"><rect codeLine="14" fill="#F1F1F1" height="124.3164" id="NaverLocalSearch" rx="2.5" ry="2.5" style="stroke:#181818;stroke-width:0.5;" width="434" x="482" y="134"/><ellipse cx="636.75" cy="150" fill="#ADD1B2" rx="11" ry="11" style="stroke:#181818;stroke-width:1.0;"/><path d="M640.1875,155.0781 Q638.6094,156.25 636.5156,156.25 Q633.8125,156.25 632.1563,154.5313 Q630.5,152.8125 630.5,150.125 Q630.5,147.2813 632.3125,145.4219 Q634.1406,143.5625 637,143.5625 Q638.8438,143.5625 640.1875,144.75 L640.1875,146.5781 Q638.375,145.25 636.8281,145.25 Q634.7031,145.25 633.4375,146.5938 Q632.1875,147.9375 632.1875,150.0469 Q632.1875,152.0781 633.3594,153.3281 Q634.5313,154.5625 636.5156,154.5625 Q638.3281,154.5625 640.1875,153.2344 L640.1875,155.0781 Z " fill="#000000"/><text fill="#000000" font-family="sans-serif" font-size="14" lengthAdjust="spacing" textLength="116" x="657.25" y="156.1558">NaverLocalSearch</text><line style="stroke:#181818;stroke-width:0.5;" x1="483" x2="915" y1="166" y2="166"/><rect fill="none" height="6" style="stroke:#C82930;stroke-width:1.0;" width="6" x="490" y="174"/><text fill="#000000" font-family="sans-serif" font-size="14" lengthAdjust="spacing" textLength="40" x="502" y="185.6953">server</text><rect fill="none" height="6" style="stroke:#C82930;stroke-width:1.0;" width="6" x="490" y="193.0791"/><text fill="#000000" font-family="sans-serif" font-size="14" lengthAdjust="spacing" textLength="83" x="502" y="204.7744">restTemplate</text><line style="stroke:#181818;stroke-width:1.0;" x1="483" x2="915" y1="212.1582" y2="212.1582"/><ellipse cx="493" cy="223.1582" fill="#84BE84" rx="3" ry="3" style="stroke:#038048;stroke-width:1.0;"/><text fill="#000000" font-family="sans-serif" font-size="14" lengthAdjust="spacing" textLength="408" x="502" y="231.8535">NaverLocalSearchResult search(NaverLocalSearchQuery query)</text><ellipse cx="493" cy="242.2373" fill="#84BE84" rx="3" ry="3" style="stroke:#038048;stroke-width:1.0;"/><text fill="#000000" font-family="sans-serif" font-size="14" lengthAdjust="spacing" textLength="313" x="502" y="250.9326">List&lt;Local&gt; search(String keyword, Integer count)</text></g><!--MD5=[89a99e8b8f28951c73f6fc9a96ceb2fa]
class KakaoNaverLocalSearch--><g id="elem_KakaoNaverLocalSearch"><rect codeLine="22" fill="#F1F1F1" height="105.2373" id="KakaoNaverLocalSearch" rx="2.5" ry="2.5" style="stroke:#181818;stroke-width:0.5;" width="339" x="529.5" y="318"/><ellipse cx="616.75" cy="334" fill="#ADD1B2" rx="11" ry="11" style="stroke:#181818;stroke-width:1.0;"/><path d="M620.1875,339.0781 Q618.6094,340.25 616.5156,340.25 Q613.8125,340.25 612.1563,338.5313 Q610.5,336.8125 610.5,334.125 Q610.5,331.2813 612.3125,329.4219 Q614.1406,327.5625 617,327.5625 Q618.8438,327.5625 620.1875,328.75 L620.1875,330.5781 Q618.375,329.25 616.8281,329.25 Q614.7031,329.25 613.4375,330.5938 Q612.1875,331.9375 612.1875,334.0469 Q612.1875,336.0781 613.3594,337.3281 Q614.5313,338.5625 616.5156,338.5625 Q618.3281,338.5625 620.1875,337.2344 L620.1875,339.0781 Z " fill="#000000"/><text fill="#000000" font-family="sans-serif" font-size="14" lengthAdjust="spacing" textLength="156" x="637.25" y="340.1558">KakaoNaverLocalSearch</text><line style="stroke:#181818;stroke-width:0.5;" x1="530.5" x2="867.5" y1="350" y2="350"/><rect fill="none" height="6" style="stroke:#C82930;stroke-width:1.0;" width="6" x="537.5" y="358"/><text fill="#000000" font-family="sans-serif" font-size="14" lengthAdjust="spacing" textLength="117" x="549.5" y="369.6953">kakaoLocalSearch</text><rect fill="none" height="6" style="stroke:#C82930;stroke-width:1.0;" width="6" x="537.5" y="377.0791"/><text fill="#000000" font-family="sans-serif" font-size="14" lengthAdjust="spacing" textLength="115" x="549.5" y="388.7744">naverLocalSearch</text><line style="stroke:#181818;stroke-width:1.0;" x1="530.5" x2="867.5" y1="396.1582" y2="396.1582"/><ellipse cx="540.5" cy="407.1582" fill="#84BE84" rx="3" ry="3" style="stroke:#038048;stroke-width:1.0;"/><text fill="#000000" font-family="sans-serif" font-size="14" lengthAdjust="spacing" textLength="313" x="549.5" y="415.8535">List&lt;Local&gt; search(String keyword, Integer count)</text></g><!--MD5=[cbebea4499c8e7a7644f170cebc435f5]
reverse link LocalSearch to KakaoLocalSearch--><g id="link_LocalSearch_KakaoLocalSearch"><path codeLine="29" d="M579.84,80.25 C529.77,96.54 470.31,115.87 414.61,133.99 " fill="none" id="LocalSearch-backto-KakaoLocalSearch" style="stroke:#181818;stroke-width:1.0;"/><polygon fill="none" points="577.72,73.58,598.9,74.05,582.05,86.9,577.72,73.58" style="stroke:#181818;stroke-width:1.0;"/></g><!--MD5=[cd1f127d270b1cad1bb0bb726cc45518]
reverse link LocalSearch to NaverLocalSearch--><g id="link_LocalSearch_NaverLocalSearch"><path codeLine="30" d="M699,94.34 C699,107.11 699,120.87 699,133.99 " fill="none" id="LocalSearch-backto-NaverLocalSearch" style="stroke:#181818;stroke-width:1.0;"/><polygon fill="none" points="692,94.05,699,74.05,706,94.05,692,94.05" style="stroke:#181818;stroke-width:1.0;"/></g><!--MD5=[388c7f1e8ef1c55846fd791480ed54e9]
reverse link LocalSearch to KakaoNaverLocalSearch--><g id="link_LocalSearch_KakaoNaverLocalSearch"><path codeLine="31" d="M875.55,83.05 C898.58,95.75 919.25,112.34 934,134 C965.02,179.55 963.46,211.42 934,258 C918.01,283.29 894.56,302.95 868.58,318.21 " fill="none" id="LocalSearch-backto-KakaoNaverLocalSearch" style="stroke:#181818;stroke-width:1.0;"/><polygon fill="none" points="872.32,89.26,857.55,74.07,878.57,76.73,872.32,89.26" style="stroke:#181818;stroke-width:1.0;"/></g><!--MD5=[8886f9acce1f0607212cfd6d07e8cf70]
reverse link KakaoLocalSearch to KakaoNaverLocalSearch--><g id="link_KakaoLocalSearch_KakaoNaverLocalSearch"><path codeLine="32" d="M398.8,259.79 C451.08,278.89 507.92,299.67 557.93,317.94 " fill="none" id="KakaoLocalSearch-backto-KakaoNaverLocalSearch" style="stroke:#181818;stroke-width:1.0;"/><polygon fill="#181818" points="394.07,258.06,401.1545,264.9018,398.7673,259.7733,403.8958,257.3861,394.07,258.06" style="stroke:#181818;stroke-width:1.0;"/></g><!--MD5=[f7dabefd81b8a664d74107c9d108a0e9]
reverse link NaverLocalSearch to KakaoNaverLocalSearch--><g id="link_NaverLocalSearch_KakaoNaverLocalSearch"><path codeLine="33" d="M699,263.36 C699,281.41 699,300.7 699,317.8 " fill="none" id="NaverLocalSearch-backto-KakaoNaverLocalSearch" style="stroke:#181818;stroke-width:1.0;"/><polygon fill="#181818" points="699,258.3,695,267.3,699,263.3,703,267.3,699,258.3" style="stroke:#181818;stroke-width:1.0;"/></g><!--MD5=[9774ade27321c06f9444cd5f27c052f7]
@startuml classDiagram

interface LocalSearch {
  List<Local> search(String keyword, Integer count)
}

class KakaoLocalSearch {
  -server
  -restTemplate
  - -
  +KakaoLocalSearchResult search(KakaoLocalSearchQuery query)
  +List<Local> search(String keyword, Integer count)
}

class NaverLocalSearch {
  -server
  -restTemplate
  - -
  +NaverLocalSearchResult search(NaverLocalSearchQuery query)
  +List<Local> search(String keyword, Integer count)
}

class KakaoNaverLocalSearch {
  -kakaoLocalSearch
  -naverLocalSearch
  - -
  +List<Local> search(String keyword, Integer count)
}

LocalSearch<|- -KakaoLocalSearch
LocalSearch<|- -NaverLocalSearch
LocalSearch<|- -KakaoNaverLocalSearch
KakaoLocalSearch<- -KakaoNaverLocalSearch
NaverLocalSearch<- -KakaoNaverLocalSearch

@enduml

PlantUML version 1.2022.5(Sat Apr 30 19:55:52 KST 2022)
(GPL source distribution)
Java Runtime: OpenJDK Runtime Environment
JVM: OpenJDK 64-Bit Server VM
Default Encoding: MS949
Language: ko
Country: KR
--></g></svg>